<svg width="24" height="24" viewBox="0 0 24 24" fill="none" xmlns="http://www.w3.org/2000/svg">
<path d="M10.1797 0.648438C15.4352 0.648438 19.7117 4.92418 19.7119 10.1797L19.7041 10.5654C19.6281 12.4867 18.969 14.3426 17.8105 15.8848L17.7988 15.9014L22.959 21.0615C23.1585 21.2853 23.2768 21.5685 23.2969 21.8652L23.2988 21.9932C23.2892 22.3364 23.1491 22.6634 22.9062 22.9062C22.6634 23.1491 22.3364 23.2892 21.9932 23.2988L21.8652 23.2969C21.6104 23.2796 21.3659 23.1894 21.1602 23.0381L21.0605 22.958L15.9014 17.7988L15.8848 17.8105C14.2397 19.0463 12.2372 19.7142 10.1797 19.7119L9.69043 19.6992C4.66137 19.4435 0.648438 15.2712 0.648438 10.1797C0.648607 4.92429 4.92429 0.648607 10.1797 0.648438ZM11.5156 3.46289C10.2703 3.21527 8.98208 3.31873 7.79492 3.75977L7.55957 3.85254C6.38645 4.33846 5.37299 5.14076 4.63086 6.16699L4.48535 6.375C3.73291 7.50113 3.33209 8.82532 3.33203 10.1797L3.34082 10.5195C3.42095 12.0987 4.04408 13.6024 5.10547 14.7744L5.33984 15.0205C6.54351 16.2241 8.14881 16.9338 9.84082 17.0195L10.1797 17.0283C11.5341 17.0283 12.8582 16.6265 13.9844 15.874C15.1106 15.1215 15.9885 14.0521 16.5068 12.8008C16.9928 11.6277 17.1423 10.3442 16.9414 9.09375L16.8965 8.84375C16.6487 7.59845 16.0599 6.44854 15.1982 5.52051L15.0225 5.33789C14.1245 4.43996 12.9959 3.81047 11.7637 3.51758L11.5156 3.46289Z" fill="#232321" stroke="#232321" stroke-width="0.046875"/>
</svg>
