<svg width="20" height="22" viewBox="0 0 20 22" fill="none" xmlns="http://www.w3.org/2000/svg">
<path d="M10 12.5234C12.0979 12.5234 14.1448 13.0784 15.8096 14.0918L16.1377 14.3008C17.952 15.5104 19.1469 17.2016 19.6143 19.2109L19.6982 19.6172C19.7768 20.0518 19.6935 20.4815 19.4707 20.8223L19.3662 20.9629C19.2641 21.0853 19.1427 21.1896 19.0068 21.2715L18.8662 21.3457C18.6734 21.4344 18.4632 21.4792 18.251 21.4766H1.75C1.59079 21.4786 1.43269 21.4541 1.28223 21.4043L1.13379 21.3457C0.988992 21.2791 0.85673 21.1889 0.742188 21.0791L0.633789 20.9629C0.371572 20.6493 0.245531 20.235 0.27832 19.8037L0.302734 19.6182C0.672538 17.5667 1.77709 15.8224 3.50879 14.5488L3.86328 14.3008C5.58311 13.1547 7.76229 12.5235 10 12.5234ZM10 0.523438C11.3125 0.523438 12.5092 0.997666 13.4014 1.86426L13.5752 2.04297C14.4365 2.97292 14.8843 4.20498 14.8496 5.53613L14.8359 5.80371C14.6251 8.65903 12.4565 10.9766 10 10.9766C7.62017 10.9764 5.50665 8.8008 5.18848 6.06836L5.16406 5.80273C5.06603 4.44687 5.45114 3.18606 6.25195 2.22266L6.41699 2.03418C7.32018 1.06058 8.59245 0.523506 10 0.523438Z" fill="#232321" stroke="#232321" stroke-width="0.046875"/>
</svg>
